<?xml version="1.0" encoding="UTF-8"?>
<!DOCTYPE svg PUBLIC "-//W3C//DTD SVG 1.1//EN" "http://www.w3.org/Graphics/SVG/1.1/DTD/svg11.dtd">
<!-- Creator: CorelDRAW -->
<svg xmlns="http://www.w3.org/2000/svg" xml:space="preserve" width="2048px" height="2048px" style="shape-rendering:geometricPrecision; text-rendering:geometricPrecision; image-rendering:optimizeQuality; fill-rule:evenodd; clip-rule:evenodd"
viewBox="0 0 2048 2048"
 xmlns:xlink="http://www.w3.org/1999/xlink">
 <defs>
  <style type="text/css">
   <![CDATA[
    .fil2 {fill:none}
    .fil9 {fill:#1E2545}
    .fil1 {fill:#E53935}
    .fil0 {fill:#EF5350}
    .fil4 {fill:#0EA2AC;fill-rule:nonzero}
    .fil3 {fill:#1E2545;fill-rule:nonzero}
    .fil5 {fill:#22C5D1;fill-rule:nonzero}
    .fil6 {fill:#68B4F2;fill-rule:nonzero}
    .fil7 {fill:#96CDFA;fill-rule:nonzero}
    .fil8 {fill:#BDE1FF;fill-rule:nonzero}
   ]]>
  </style>
   <clipPath id="id0">
    <path d="M1024 -0.0011811c565.541,0 1024,458.461 1024,1024 0,565.541 -458.461,1024 -1024,1024 -565.541,0 -1024,-458.461 -1024,-1024 0,-565.541 458.461,-1024 1024,-1024z"/>
   </clipPath>
 </defs>
 <g id="Layer_x0020_1">
  <metadata id="CorelCorpID_0Corel-Layer"/>
  <path class="fil0" d="M1024 -0.0011811c565.541,0 1024,458.461 1024,1024 0,565.541 -458.461,1024 -1024,1024 -565.541,0 -1024,-458.461 -1024,-1024 0,-565.541 458.461,-1024 1024,-1024z"/>
  <g style="clip-path:url(#id0)">
   <g id="_452531744">
    <path id="_4525245681" class="fil1" d="M1128.21 488.757l98.9174 98.9174 0.190158 0.35315 1.9063 3.68622 1.84134 3.71929 1.77638 3.75118 1.7126 3.78189 1.64646 3.8126 1.58032 3.84213 1.51417 3.87166 1.44803 3.89882 1.17165 3.33425 -64.0878 -64.0878c-0.777166,-0.855119 -1.56024,-1.70315 -2.35276,-2.54528l-0.0590552 -0.0637796c-1.58858,-1.68898 -3.20788,-3.35079 -4.8567,-4.98544l-0.022441 -0.022441 -0.022441 -0.0212599c-0.804331,-0.799607 -1.61811,-1.59095 -2.4378,-2.37638l-0.0614174 -0.0590552 -0.0779528 -0.0732284c-0.804331,-0.767717 -1.61221,-1.53071 -2.42953,-2.28543l-0.0590552 -0.0555119 -0.0531496 -0.0484252c-0.82441,-0.761812 -1.65591,-1.51536 -2.49449,-2.26417l-0.0625985 -0.0578741 -0.0850394 -0.0744095c-0.812599,-0.724016 -1.6311,-1.44213 -2.45669,-2.15315l-0.112205 -0.0992127 -0.0838583 -0.0708662 -0.00354331 -0.00354331c-0.840946,-0.724016 -1.68898,-1.43976 -2.54292,-2.14961l-0.068504 -0.0578741 -0.0732284 -0.0602363c-0.853938,-0.707481 -1.7126,-1.41024 -2.57835,-2.10354l-0.0885827 -0.0720473 -0.0011811 0 -0.0897638 -0.0708662c-0.881103,-0.703938 -1.76457,-1.40079 -2.65866,-2.09055l-0.0354331 -0.0283465 -0.0354331 -0.0271654c-0.890552,-0.687402 -1.78701,-1.36654 -2.69055,-2.03977l-0.100394 -0.0767717 -0.134646 -0.0992127c-0.857481,-0.637796 -1.72205,-1.2685 -2.59134,-1.89331l-0.141732 -0.102756 -0.103937 -0.0732284c-0.916536,-0.655512 -1.83662,-1.30394 -2.76614,-1.94528l-0.0401575 -0.0283465 -0.068504 -0.0472441c-0.90945,-0.627166 -1.8248,-1.24606 -2.74607,-1.85906l-0.137008 -0.0921261 -0.0980316 -0.0637796c-0.927166,-0.615355 -1.86024,-1.22126 -2.8004,-1.82244l-0.0933072 -0.0614174 -0.0885827 -0.0555119c-1.94055,-1.23662 -3.90591,-2.4437 -5.89607,-3.61654l-0.121654 -0.0732284 -0.105118 -0.0602363c-0.99567,-0.585827 -1.99843,-1.16457 -3.00709,-1.73386l-22.5425 40.037 57.8209 57.8209 0.794883 1.38189 1.3252 2.39292 0.193701 0.193701 1.18347 2.2252 1.24725 2.44252 1.20591 2.46614 1.16575 2.4874 1.12441 2.50984 1.08425 2.52992 1.04173 2.55118 1.00039 2.57126 0.957875 2.59134 0.916536 2.60906 0.872835 2.62795 0.830316 2.64685 0.786615 2.66221 0.742914 2.67992 0.575197 2.21575 -51.8103 -51.8103c-0.89882,-0.998032 -1.81299,-1.97717 -2.74252,-2.93977l-0.00354331 -0.00354331 -0.0437008 -0.046063 -0.0472441 -0.0472441c-0.433465,-0.447638 -0.869292,-0.890552 -1.30866,-1.32992l-0.0755906 -0.0767717 -0.090945 -0.0897638c-0.421654,-0.419292 -0.84567,-0.833859 -1.27323,-1.24606l-0.090945 -0.0885827 -0.0531496 -0.0507874c-0.446457,-0.42874 -0.897638,-0.855119 -1.35118,-1.27559l-0.0744095 -0.0708662 -0.0472441 -0.0425197 -0.0413386 -0.0377953c-0.462992,-0.42874 -0.929528,-0.852757 -1.39961,-1.27323l-0.0141732 -0.0129921 -0.022441 -0.0188977c-0.497244,-0.444095 -0.999213,-0.883465 -1.50354,-1.31929 -0.992127,-0.853938 -1.99961,-1.6878 -3.02008,-2.50394l-0.0507874 -0.0413386 -0.0484252 -0.0401575 -0.0862205 -0.0673229c-0.49252,-0.392126 -0.987402,-0.778347 -1.48701,-1.16221l-0.0212599 -0.0165354 -0.100394 -0.0767717c-0.468898,-0.357874 -0.941339,-0.712205 -1.41496,-1.06299l-0.101575 -0.0755906 -0.0448819 -0.0318898c-0.522048,-0.383859 -1.04646,-0.765355 -1.57559,-1.13858l-0.0177165 -0.0129921 -0.0519685 -0.0366142c-1.08189,-0.765355 -2.17914,-1.50945 -3.29055,-2.23229l-25.0689 38.5937 18.3555 18.3555 0.493701 0.714567 1.39134 2.16142 1.33347 2.22166 1.27441 2.28071 1.21299 2.3374 1.15158 2.39173 0.530315 1.16811 -209.563 -209.563c-1.51654,0.801969 -3.02362,1.61693 -4.52126,2.4437 -1.49764,0.826772 -2.98701,1.66654 -4.46575,2.51693 -1.47874,0.851575 -2.94685,1.71496 -4.4067,2.59016 -1.45984,0.875198 -2.90906,1.76339 -4.35,2.66221 -1.43976,0.89882 -2.87008,1.81063 -4.29095,2.73307 -1.42087,0.922442 -2.83229,1.85906 -4.23307,2.80394 -1.40079,0.946064 -2.79095,1.90394 -4.17166,2.87244 -1.38071,0.968505 -2.75197,1.94882 -4.1126,2.93977 -1.36063,0.990946 -2.71181,1.9937 -4.05237,3.00709 -1.34055,1.01339 -2.67047,2.03622 -3.98977,3.07205 -1.31929,1.03465 -2.62914,2.0811 -3.92835,3.13819 -1.29921,1.05709 -2.5878,2.12244 -3.86575,3.20079 -1.27795,1.07717 -2.54646,2.16614 -3.80315,3.26457 -1.25669,1.09843 -2.50276,2.20748 -3.73819,3.32599 -1.23543,1.1185 -2.46142,2.24764 -3.67559,3.3874 -1.21417,1.13858 -2.41772,2.28662 -3.60945,3.44646 -1.19173,1.15866 -2.37402,2.32795 -3.54449,3.50551 -1.17047,1.17874 -2.33032,2.36575 -3.47835,3.56339 -1.14803,1.19764 -2.28662,2.40473 -3.41221,3.62008 -1.12559,1.21654 -2.24055,2.44016 -3.34488,3.67559 -1.10315,1.23425 -2.19567,2.47677 -3.27638,3.72992 -1.08071,1.25315 -2.15079,2.51457 -3.20906,3.78425 -1.05827,1.27087 -2.10591,2.54882 -3.14055,3.83622 -1.03465,1.2874 -2.05866,2.58307 -3.06969,3.88819 -1.01221,1.30512 -2.01142,2.61732 -3,3.93898 -0.988583,1.32165 -1.96536,2.65158 -2.93032,3.98859 -0.964961,1.33819 -1.91811,2.68347 -2.85827,4.03819 -0.941339,1.35354 -1.87087,2.71418 -2.7874,4.08426 -0.916536,1.3689 -1.82126,2.74725 -2.71418,4.1315 -0.892914,1.38543 -1.77284,2.77795 -2.64095,4.17756 -0.868111,1.39961 -1.72559,2.8063 -2.5689,4.22126 -0.843308,1.41496 -1.67362,2.83583 -2.49331,4.26496 -0.818505,1.42795 -1.6252,2.86418 -2.4189,4.3063 -0.793701,1.44213 -1.57441,2.89252 -2.34331,4.34882 -0.768898,1.4563 -1.5248,2.91851 -2.26772,4.38898 -0.742914,1.47047 -1.47402,2.94803 -2.19213,4.43032 -0.718111,1.48347 -1.42205,2.97284 -2.11417,4.46811 -0.692127,1.49646 -1.37244,2.99764 -2.03858,4.50591 -0.666142,1.50827 -1.31929,3.02244 -1.95945,4.5437 -0.640158,1.52008 -1.26732,3.04725 -1.8815,4.57914 -0.614174,1.53189 -1.21417,3.07087 -1.80236,4.61457 -0.587008,1.5437 -1.16221,3.09331 -1.72205,4.64764 -0.561024,1.55433 -1.10787,3.11457 -1.64291,4.68071 -0.533859,1.56496 -1.05473,3.13583 -1.56142,4.7126 -0.506693,1.57559 -1.00039,3.15709 -1.47992,4.74331 -0.479528,1.58622 -0.946064,3.17835 -1.39843,4.77402 -0.452363,1.59567 -0.890552,3.19607 -1.31575,4.80118 -0.425197,1.60512 -0.836221,3.21614 -1.23307,4.83071 -0.396851,1.61457 -0.779528,3.23268 -1.14921,4.8567 -0.368504,1.62284 -0.724016,3.2504 -1.06417,4.8815 -0.340158,1.6311 -0.667323,3.26811 -0.980316,4.90748 -0.311811,1.63937 -0.61063,3.28347 -0.894095,4.93111 -0.283465,1.64764 -0.553937,3.29882 -0.809056,4.95355 -0.255118,1.65473 -0.496063,3.31299 -0.721654,4.97481 -0.225591,1.66181 -0.43937,3.32717 -0.635434,4.99607 -0.197244,1.6689 -0.379134,3.34134 -0.546851,5.01615 -0.167717,1.6748 -0.32126,3.35315 -0.459449,5.03386 -0.138189,1.68071 -0.261024,3.36496 -0.369685,5.05158 -0.108662,1.68662 -0.201969,3.37559 -0.279921,5.06811 -0.0779528,1.69252 -0.142913,3.3874 -0.191339,5.08465 -0.0484252,1.69725 -0.080315,3.39567 -0.0992127,5.09764 -0.0177165,1.70197 -0.0212599,3.4063 -0.00944883,5.113 0.011811,1.70551 0.0413386,3.41339 0.0838583,5.12363 0.0437008,1.71024 0.100394,3.42166 0.174803,5.13662 0.0673229,1.56969 0.148819,3.13819 0.242126,4.70315 0.0933072,1.56496 0.198425,3.12756 0.317717,4.6878 0.119291,1.56024 0.250394,3.11693 0.394488,4.67244 0.144095,1.55433 0.302362,3.10512 0.47126,4.65473 0.168898,1.54843 0.351969,3.09449 0.54567,4.63819 0.194882,1.54252 0.401575,3.08386 0.62126,4.62048 0.219685,1.53662 0.451181,3.07205 0.69567,4.60158 0.244488,1.53071 0.500788,3.05788 0.768898,4.5815 0.26811,1.52362 0.549213,3.0437 0.842127,4.56024 0.292914,1.51654 0.598819,3.02953 0.915355,4.54016 0.317717,1.50945 0.647245,3.01536 0.988583,4.51772 0.341339,1.50236 0.693308,3 1.05945,4.49528 0.364961,1.4941 0.742914,2.98465 1.1315,4.47166 0.388583,1.48583 0.790158,2.96929 1.20236,4.44685 0.412205,1.47756 0.837402,2.95158 1.27323,4.42205 0.435827,1.46929 0.883465,2.93504 1.34291,4.39607 0.459449,1.46102 0.93189,2.91851 1.41378,4.37008 0.48189,1.45158 0.975591,2.90079 1.4811,4.34292 0.505512,1.44331 1.02165,2.87953 1.55079,4.31339 0.527953,1.43268 1.06772,2.86299 1.61811,4.28622 0.550394,1.42323 1.1126,2.84173 1.68662,4.25552 0.572835,1.41378 1.15748,2.82166 1.75276,4.22481 0.595276,1.40315 1.20236,2.80158 1.82008,4.1941 0.617717,1.39252 1.24606,2.78032 1.88622,4.16221 0.640158,1.38189 1.28976,2.75788 1.95118,4.12914 0.661418,1.37008 1.33347,2.73662 2.01732,4.09607 0.682678,1.35945 1.37835,2.71299 2.08229,4.06063 0.705119,1.34764 1.41851,2.69055 2.14488,4.02638 0.725197,1.33583 1.46221,2.66693 2.20984,3.99095 0.747638,1.32402 1.50473,2.64213 2.27362,3.95315 0.767717,1.31102 1.54725,2.61732 2.33622,3.91654 0.788977,1.29921 1.5874,2.59134 2.39764,3.87874 0.799607,1.26969 1.60984,2.53465 2.42953,3.79134l0.0283465 0.0448819 0.0295276 0.0448819c0.793701,1.21772 1.59803,2.42835 2.41063,3.63425l0.0791339 0.11811 0.0519685 0.0755906c1.66654,2.46614 3.37205,4.9063 5.11536,7.3193l0.0543308 0.0767717 0.0625985 0.0850394c1.75394,2.42362 3.54567,4.82008 5.37638,7.18819l0.022441 0.0307087 0.0271654 0.0354331c0.921261,1.19173 1.85197,2.37638 2.79213,3.55276 0.930709,1.16457 1.87087,2.32087 2.81929,3.47126l0.0590552 0.0720473 0.0543308 0.0649607c0.921261,1.11496 1.85197,2.22284 2.78977,3.32481l0.0921261 0.108662 0.0602363 0.068504c0.95315,1.11496 1.91221,2.22166 2.88189,3.32362l0.0519685 0.0602363 0.046063 0.0507874c0.987402,1.1185 1.98189,2.2311 2.98701,3.33544l0.0177165 0.0200788 0.022441 0.0248032c1.00748,1.10669 2.02677,2.20512 3.05197,3.29764l0.0330709 0.0366142 0.0980316 0.103937c1.0063,1.06772 2.02087,2.12953 3.0437,3.18425l0.0212599 0.022441 0.0200788 0.0200788c1.05827,1.08898 2.1248,2.16969 3.19961,3.24213l91.8296 91.8308 -67.4776 607.674 1135.88 1135.88 28.5744 -0.211417 2.65276 -23.9433 138.058 -111.23 26.8949 21.6685 113.505 113.505 28.5744 0.211417 -74.3174 -669.254 -74.9103 -74.9103 0 -12.3709 106.531 106.531 4.13859 -2.25236 4.09134 -2.31496 4.0441 -2.37756 3.99567 -2.4378 3.94843 -2.49803 3.89882 -2.55827 3.84922 -2.61614 3.79961 -2.6752 3.74882 -2.73189 3.69803 -2.78858 3.64725 -2.8441 3.59528 -2.89961 3.54331 -2.95276 3.49016 -3.00709 3.43701 -3.05906 3.38386 -3.11103 3.32953 -3.16299 3.27402 -3.2126 3.21969 -3.26221 3.16299 -3.31063 3.10748 -3.35906 3.05079 -3.4063 2.9941 -3.45236 2.93622 -3.49843 2.87835 -3.54331 2.81929 -3.58819 2.76024 -3.63071 2.70118 -3.67323 2.64095 -3.71575 2.58071 -3.75591 2.51929 -3.79725 2.45788 -3.83622 2.39764 -3.87874 2.33622 -3.91654 2.27362 -3.95315 2.20984 -3.99095 2.14488 -4.02638 2.08229 -4.06063 2.01732 -4.09607 1.95118 -4.12914 1.88622 -4.16221 1.82008 -4.1941 1.75276 -4.22481 1.68662 -4.25552 1.61811 -4.28622 1.55079 -4.31339 1.4811 -4.34292 1.41378 -4.37008 1.34291 -4.39607 1.27323 -4.42205 1.20236 -4.44685 1.1315 -4.47166 1.05945 -4.49528 0.988583 -4.51772 0.915355 -4.54016 0.842127 -4.56024 0.768898 -4.5815 0.69567 -4.60158 0.62126 -4.62048 0.54567 -4.63819 0.47126 -4.65473 0.394488 -4.67244 0.317717 -4.6878 0.242126 -4.70315 0.174803 -5.13662 0.0838583 -5.12363 -0.00944883 -5.113 -0.0992127 -5.09764 -0.191339 -5.08465 -0.279921 -5.06811 -0.369685 -5.05158 -0.459449 -5.03386 -0.546851 -5.01615 -0.635434 -4.99607 -0.721654 -4.97481 -0.809056 -4.95355 -0.894095 -4.93111 -0.980316 -4.90748 -1.06417 -4.8815 -1.14921 -4.8567 -1.23307 -4.83071 -1.31575 -4.80118 -1.39843 -4.77402 -1.47992 -4.74331 -1.56142 -4.7126 -1.64291 -4.68071 -1.72205 -4.64764 -1.80236 -4.61457 -1.8815 -4.57914 -1.95945 -4.5437 -2.03858 -4.50591 -2.11417 -4.46811 -2.19213 -4.43032 -2.26772 -4.38898 -2.34331 -4.34882 -2.4189 -4.3063 -2.49331 -4.26496 -2.5689 -4.22126 -2.64095 -4.17756 -2.71418 -4.1315 -2.7874 -4.08426 -2.85827 -4.03819 -2.93032 -3.98859 -3 -3.93898 -3.06969 -3.88819 -3.14055 -3.83622 -3.20906 -3.78425 -1135.88 -1135.88c-1.06299,-1.23189 -2.1378,-2.45315 -3.22205,-3.66733l-0.00354331 -0.00472441 -0.0507874 -0.0578741 -0.0862205 -0.0956694c-1.07008,-1.19528 -2.15079,-2.3811 -3.24095,-3.55985l-0.0177165 -0.0200788 -0.0330709 -0.0354331c-1.10197,-1.18937 -2.21457,-2.37047 -3.33898,-3.54213l-0.0401575 -0.0425197 -0.0625985 -0.0649607c-1.10197,-1.14803 -2.21457,-2.28662 -3.33662,-3.41693l-0.0791339 -0.0814961 -0.120473 -0.119291c-1.10551,-1.11142 -2.22047,-2.21339 -3.34488,-3.30827l-0.0791339 -0.0779528 -0.114567 -0.108662c-1.12441,-1.09134 -2.25945,-2.17559 -3.40276,-3.2504l-0.0921261 -0.0874016 -0.122835 -0.113386c-1.14803,-1.07599 -2.30551,-2.14252 -3.47244,-3.19961l-0.080315 -0.0744095 -0.113386 -0.100394c-1.16339,-1.05236 -2.33504,-2.09528 -3.51733,-3.12992l-0.10748 -0.0956694 -0.121654 -0.103937c-1.17165,-1.02284 -2.35276,-2.0374 -3.54331,-3.04252l-0.138189 -0.11811 -0.152362 -0.126378c-1.2,-1.00984 -2.40827,-2.01142 -3.62717,-3.00355l-0.0862205 -0.0708662 -0.0850394 -0.068504c-1.22008,-0.990946 -2.44961,-1.97362 -3.6874,-2.94567l-0.155906 -0.124016 -0.153543 -0.11811c-1.2378,-0.969686 -2.48268,-1.92756 -3.73819,-2.87835l-0.0980316 -0.0755906 -0.090945 -0.0673229c-1.28268,-0.968505 -2.57481,-1.92756 -3.8752,-2.87599l-0.0862205 -0.0637796 -0.0779528 -0.0555119c-1.30984,-0.95315 -2.62914,-1.89567 -3.9567,-2.82874l-0.0779528 -0.0555119 -0.0673229 -0.046063c-1.31339,-0.920079 -2.63504,-1.83071 -3.96614,-2.73071l-0.138189 -0.0956694 -0.101575 -0.0673229c-1.31575,-0.887009 -2.63977,-1.76457 -3.97205,-2.6315l-0.159449 -0.105118 -0.131102 -0.0838583c-1.3252,-0.859843 -2.65748,-1.70906 -3.99922,-2.54764l-0.16063 -0.101575 -0.11811 -0.0720473c-1.36772,-0.852757 -2.7437,-1.69488 -4.12914,-2.52756l-0.102756 -0.0625985 -0.0661418 -0.0389764c-1.38543,-0.830316 -2.7815,-1.65 -4.18347,-2.45906l-0.157087 -0.0921261 -0.100394 -0.056693c-1.44685,-0.831497 -2.90079,-1.65236 -4.36536,-2.46024l-0.0696851 -0.0389764c-1.4752,-0.81378 -2.95984,-1.61575 -4.45158,-2.40473l-21.4606 40.7575zm1210.3 1131.31l1.23425 1.05945 3.73819 3.32599 3.67559 3.3874 3.60945 3.44646 3.54449 3.50551 3.47835 3.56339 3.41221 3.62008 3.34488 3.67559 3.27638 3.72992 -29.3138 -29.3138z"/>
   </g>
  </g>
  <path class="fil2" d="M1024 -0.0011811c565.541,0 1024,458.461 1024,1024 0,565.541 -458.461,1024 -1024,1024 -565.541,0 -1024,-458.461 -1024,-1024 0,-565.541 458.461,-1024 1024,-1024z"/>
  <g id="_440585344">
   <polygon id="_440607544" class="fil3" points="1043.97,745.528 1043.97,957.881 1004.03,957.881 1004.03,745.528 "/>
   <path id="_440605312" class="fil4" d="M1024 629.765c19.0358,0 36.3177,7.78938 48.8693,20.3788 12.5079,12.548 20.2453,29.8347 20.2453,48.8811 0,19.0477 -7.73623,36.3343 -20.2453,48.8811 -12.5516,12.5906 -29.8335,20.3788 -48.8693,20.3788 -19.0358,0 -36.3177,-7.78819 -48.8693,-20.3788 -12.5091,-12.5469 -20.2465,-29.8335 -20.2465,-48.8811 0,-19.0465 7.73859,-36.3331 20.2465,-48.8811 12.5516,-12.5894 29.8323,-20.3788 48.8693,-20.3788z"/>
   <path id="_440605384" class="fil5" d="M1024 640.627c16.0512,0 30.6225,6.56693 41.2051,17.1827 10.5461,10.5791 17.0717,25.1563 17.0717,41.2158 0,3.75473 -0.356693,7.42796 -1.03819,10.9878 -2.23347,-11.6669 -7.95237,-22.1185 -16.0323,-30.2233 -10.5827,-10.6158 -25.1551,-17.1839 -41.2063,-17.1839 -16.05,0 -30.6213,6.56812 -41.2051,17.1839 -8.07993,8.10591 -13.8,18.5587 -16.0335,30.228 -0.681497,-3.56221 -1.03819,-7.23662 -1.03819,-10.9925 0,-16.0595 6.52441,-30.6366 17.0717,-41.2158 10.5827,-10.6158 25.154,-17.1827 41.2051,-17.1827z"/>
   <path id="_440586520" class="fil6" d="M965.852 625.932c-10.5874,6.88938 -19.2366,17.5665 -25.213,30.463 -6.30355,13.6063 -9.55631,29.4555 -8.98701,45.8977 0.531496,15.3437 4.34528,29.8122 10.7457,42.0815 6.08859,11.6717 14.4543,21.2303 24.4335,27.4146l-24.1677 39.1347c-17.1461,-10.624 -31.1764,-26.3953 -41.0244,-45.2693 -9.5315,-18.2717 -15.202,-39.5693 -15.9756,-61.9182 -0.822048,-23.7532 3.93071,-46.7693 13.1362,-66.6378 9.53977,-20.589 23.9244,-38.0091 41.9835,-49.7599l25.0689 38.5937z"/>
   <path id="_440610232" class="fil7" d="M942.348 558.011c-25.4823,14.387 -46.017,35.9374 -59.941,61.5957l-0.090945 0c-13.9358,25.6784 -21.0992,55.4457 -19.8319,86.2418 1.16693,28.3512 9.44646,55.3347 23.4142,78.5717 13.8543,23.0469 33.3071,42.3532 56.9457,55.5626l-22.363 40.2177c-30.8268,-17.2276 -56.1308,-42.2953 -74.0788,-72.156 -17.8394,-29.6788 -28.4162,-64.154 -29.9079,-100.393 -1.61102,-39.15 7.56379,-77.1237 25.4032,-110.009l-0.0696851 -0.0389764c17.8642,-32.9173 44.5678,-60.7666 77.9776,-79.63l22.5425 40.037z"/>
   <path id="_440608888" class="fil8" d="M919.789 488.757c-40.5496,21.4429 -73.1339,53.6599 -95.1072,92.0009 -22.0075,38.4 -33.3473,82.8603 -31.3713,128.714 1.81654,42.1075 14.687,82.1717 36.4004,116.667 21.7264,34.5166 52.2744,63.4512 89.4296,83.2772l-21.6414 40.5792c-44.3918,-23.6894 -80.8524,-58.2 -106.742,-99.3296 -25.911,-41.1626 -41.2689,-88.9678 -43.4351,-139.211 -2.36457,-54.8433 11.1272,-107.894 37.3229,-153.602 26.204,-45.7229 65.152,-84.189 113.684,-109.853l21.4606 40.7575z"/>
   <path id="_440580352" class="fil6" d="M1107.22 587.338c18.0591,11.7508 32.4437,29.1709 41.9835,49.7599 9.20552,19.8685 13.9583,42.8847 13.1362,66.6378 -0.773623,22.3488 -6.4441,43.6465 -15.9756,61.9182 -9.84804,18.874 -23.8784,34.6453 -41.0244,45.2693l-24.1677 -39.1347c9.97914,-6.18426 18.3449,-15.7429 24.4335,-27.4146 6.4004,-12.2693 10.2142,-26.7378 10.7457,-42.0815 0.569292,-16.4421 -2.68347,-32.2914 -8.98701,-45.8977 -5.97638,-12.8965 -14.6256,-23.5736 -25.213,-30.463l25.0689 -38.5937z"/>
   <path id="_440602048" class="fil7" d="M1128.19 517.974c33.4099,18.8634 60.1134,46.7126 77.9776,79.63l-0.0696851 0.0389764c17.8394,32.8855 27.0142,70.8591 25.4032,110.009 -1.49173,36.2386 -12.0685,70.7138 -29.9079,100.393 -17.948,29.8607 -43.252,54.9284 -74.0788,72.156l-22.363 -40.2177c23.6386,-13.2095 43.0914,-32.5158 56.9457,-55.5626 13.9677,-23.237 22.2473,-50.2205 23.4142,-78.5717 1.26732,-30.7961 -5.89607,-60.5634 -19.8319,-86.2418l-0.090945 0c-13.924,-25.6583 -34.4587,-47.2087 -59.941,-61.5957l22.5425 -40.037z"/>
   <path id="_440579992" class="fil8" d="M1149.67 448c48.5315,25.6642 87.4796,64.1304 113.684,109.853 26.1957,45.7087 39.6874,98.7591 37.3229,153.602 -2.16614,50.243 -17.524,98.0481 -43.4351,139.211 -25.8898,41.1296 -62.3504,75.6402 -106.742,99.3296l-21.6414 -40.5792c37.1551,-19.826 67.7032,-48.7607 89.4296,-83.2772 21.7134,-34.4953 34.5839,-74.5595 36.4004,-116.667 1.97599,-45.854 -9.36379,-90.3142 -31.3713,-128.714 -21.9732,-38.341 -54.5575,-70.5579 -95.1072,-92.0009l21.4606 -40.7575z"/>
   <polygon id="_440608144" class="fil9" points="1090.52,930.817 1118.88,930.746 1193.2,1600 1164.62,1599.79 "/>
   <polygon id="_440586160" class="fil9" points="957.618,930.817 929.254,930.746 854.938,1600 883.512,1599.79 "/>
   <rect id="_440590024" class="fil9" x="947.576" y="930.746" width="157.803" height="28.8556"/>
   <rect id="_440583568" class="fil9" x="934.049" y="1063.75" width="184.857" height="28.8556"/>
   <rect id="_440600584" class="fil9" x="898.536" y="1343.29" width="255.883" height="28.8556"/>
   <polygon id="_440600152" class="fil9" points="921.413,1345.29 1180.42,1553.96 1166.48,1579.23 907.477,1370.56 "/>
   <polygon id="_440594392" class="fil9" points="1127.03,1345.29 868.026,1553.96 881.962,1579.23 1140.97,1370.56 "/>
   <polygon id="_440608408" class="fil9" points="937.192,1078.71 1148.86,1336.42 1134.92,1361.69 923.257,1103.98 "/>
   <polygon id="_440595952" class="fil9" points="1109.56,1078.71 897.896,1336.42 911.832,1361.69 1123.5,1103.98 "/>
  </g>
 </g>
</svg>
